<?xml version="1.0" standalone="no"?>
<!DOCTYPE svg PUBLIC "-//W3C//DTD SVG 20010904//EN"
 "http://www.w3.org/TR/2001/REC-SVG-20010904/DTD/svg10.dtd">
<svg version="1.0" xmlns="http://www.w3.org/2000/svg"
 width="1000.000000pt" height="1000.000000pt" viewBox="0 0 1000.000000 1000.000000"
 preserveAspectRatio="xMidYMid meet">
<metadata>
Created by potrace 1.14, written by Peter Selinger 2001-2017
</metadata>
<g transform="translate(0.000000,1000.000000) scale(0.100000,-0.100000)"
fill="#000000" stroke="none">
<path d="M152 5704 c-29 -14 -64 -41 -78 -60 -50 -65 -53 -88 -54 -396 l0
-288 80 0 80 0 0 288 c0 277 1 290 20 307 28 25 76 23 103 -4 21 -21 22 -28
25 -306 l3 -285 75 0 74 0 0 279 c0 154 3 287 6 296 10 26 62 44 94 33 47 -16
50 -38 50 -333 l0 -275 75 0 75 0 0 298 c0 337 -3 348 -79 413 -79 69 -201 78
-271 21 -21 -17 -24 -17 -77 10 -73 36 -131 37 -201 2z"/>
<path d="M7608 5711 c-76 -25 -118 -52 -177 -116 -144 -158 -130 -405 31 -550
53 -48 147 -92 215 -101 90 -11 210 21 280 76 l22 17 -41 67 -40 68 -22 -21
c-34 -32 -91 -51 -153 -51 -197 1 -309 220 -193 377 80 108 250 129 346 42 21
-19 21 -19 59 43 21 35 40 66 42 69 6 13 -94 68 -152 84 -77 20 -146 18 -217
-4z"/>
<path d="M872 5568 c4 -137 7 -158 28 -203 32 -65 94 -126 153 -151 l47 -19 0
-117 0 -118 75 0 75 0 0 115 0 116 44 19 c60 25 122 84 154 144 25 48 27 61
30 209 l4 157 -76 0 -76 0 0 -127 c0 -106 -3 -133 -20 -168 -50 -103 -193
-112 -257 -16 -21 31 -23 45 -23 172 l0 139 -81 0 -81 0 4 -152z"/>
<path d="M1890 5340 l0 -380 75 0 75 0 0 150 0 150 150 0 150 0 0 -150 0 -150
75 0 75 0 0 380 0 380 -75 0 -75 0 0 -150 0 -150 -150 0 -150 0 0 150 0 150
-75 0 -75 0 0 -380z"/>
<path d="M2832 5702 c-90 -32 -166 -109 -191 -193 -7 -22 -11 -137 -11 -293
l0 -256 75 0 75 0 0 75 0 75 150 0 150 0 0 -75 0 -75 75 0 75 0 0 263 0 264
-30 61 c-17 33 -47 75 -67 93 -82 71 -203 96 -301 61z m187 -170 c46 -33 61
-77 61 -179 l0 -93 -150 0 -150 0 0 95 c0 63 5 105 14 123 43 84 150 109 225
54z"/>
<path d="M3367 5713 c-4 -3 -7 -174 -7 -380 l0 -373 218 0 c190 0 222 3 257
19 137 63 178 234 82 339 l-21 22 27 28 c14 15 31 40 36 55 16 43 13 117 -8
163 -23 49 -88 107 -140 122 -41 13 -433 17 -444 5z m394 -153 c58 -16 75 -82
33 -125 -12 -12 -43 -15 -145 -15 l-129 0 0 75 0 75 103 0 c56 0 118 -5 138
-10z m34 -325 c30 -29 32 -64 6 -96 -18 -23 -27 -24 -150 -27 l-131 -4 0 76 0
76 125 0 c120 0 127 -1 150 -25z"/>
<path d="M4090 5340 l0 -380 75 0 75 0 0 380 0 380 -75 0 -75 0 0 -380z"/>
<path d="M4320 5645 l0 -74 113 -3 112 -3 3 -302 2 -303 75 0 75 0 0 305 0
305 115 0 115 0 0 75 0 75 -305 0 -305 0 0 -75z"/>
<path d="M5250 5645 l0 -74 113 -3 112 -3 3 -302 2 -303 75 0 75 0 0 305 0
305 115 0 115 0 0 75 0 75 -305 0 -305 0 0 -75z"/>
<path d="M5937 5713 c-4 -3 -7 -174 -7 -380 l0 -373 80 0 80 0 0 75 0 75 84 0
83 0 33 -75 33 -75 80 0 c92 0 89 -10 34 116 l-35 80 39 32 c21 18 52 60 70
97 29 60 31 71 27 143 -6 97 -41 168 -111 224 -73 57 -123 68 -317 68 -92 0
-170 -3 -173 -7z m374 -169 c53 -31 74 -68 74 -129 0 -58 -18 -91 -68 -129
-22 -16 -47 -21 -127 -24 l-100 -4 0 157 0 158 94 -5 c67 -4 103 -10 127 -24z"/>
<path d="M6855 5707 c-93 -31 -158 -89 -199 -176 -19 -43 -21 -65 -24 -308
l-3 -263 80 0 81 0 0 75 0 75 150 0 150 0 0 -75 0 -75 75 0 75 0 0 255 c0 232
-2 259 -21 309 -24 67 -86 133 -152 165 -59 28 -155 36 -212 18z m171 -172
c43 -28 64 -88 64 -187 l0 -88 -150 0 -150 0 0 103 c0 82 4 107 19 130 48 73
142 91 217 42z"/>
<path d="M8070 5340 l0 -380 75 0 75 0 0 77 0 76 56 75 c51 67 58 73 68 56 6
-10 43 -77 81 -149 l71 -130 87 -3 c48 -1 87 -1 87 1 0 2 -52 99 -116 216 -64
117 -113 219 -110 226 3 8 52 77 109 152 57 76 107 144 111 151 5 9 -12 12
-78 12 l-85 0 -138 -186 -138 -185 -3 185 -2 186 -75 0 -75 0 0 -380z"/>
<path d="M8740 5340 l0 -380 260 0 260 0 0 75 0 75 -180 0 -180 0 0 75 0 74
123 3 122 3 0 75 0 75 -122 3 -123 3 0 74 0 75 180 0 180 0 0 75 0 75 -260 0
-260 0 0 -380z"/>
<path d="M9370 5341 l0 -381 75 0 75 0 0 75 0 76 87 -3 87 -3 31 -72 30 -73
83 0 82 0 -13 33 c-8 17 -26 61 -41 96 l-27 64 45 46 c94 96 119 229 63 343
-32 65 -89 121 -156 152 -41 19 -67 21 -233 24 l-188 4 0 -381z m381 201 c19
-11 42 -34 52 -50 24 -42 22 -116 -4 -159 -33 -53 -70 -67 -179 -68 l-95 0 -3
140 c-1 76 0 145 3 153 9 24 183 11 226 -16z"/>
<path d="M2840 4545 l0 -215 25 0 25 0 0 100 c0 87 3 103 20 120 24 24 53 26
74 4 13 -12 16 -38 16 -120 l0 -104 26 0 26 0 -4 119 c-2 98 -6 123 -21 139
-26 29 -63 35 -99 17 -17 -8 -33 -15 -35 -15 -1 0 -3 38 -3 85 0 84 0 85 -25
85 l-25 0 0 -215z"/>
<path d="M3760 4545 c0 -205 1 -215 19 -215 11 0 21 5 23 11 3 9 9 9 25 0 27
-14 78 -14 105 0 26 14 58 85 58 129 0 51 -33 116 -69 134 -37 20 -49 20 -83
2 l-28 -15 0 85 c0 83 0 84 -25 84 l-25 0 0 -215z m140 15 c24 -13 42 -77 34
-118 -7 -35 -38 -72 -60 -72 -68 0 -98 126 -43 181 21 21 41 24 69 9z"/>
<path d="M5950 4545 l0 -215 25 0 c14 0 25 5 25 10 0 7 6 7 19 0 11 -5 38 -10
59 -10 33 0 45 6 66 31 33 39 40 66 34 135 -8 91 -71 140 -143 110 l-35 -15 0
85 c0 83 0 84 -25 84 l-25 0 0 -215z m159 -1 c45 -57 15 -174 -44 -174 -36 0
-65 44 -65 100 0 56 29 100 65 100 14 0 32 -11 44 -26z"/>
<path d="M8760 4561 c0 -217 4 -231 56 -231 27 0 35 34 9 44 -13 4 -15 36 -15
196 l0 190 -25 0 -25 0 0 -199z"/>
<path d="M9445 4736 c-20 -20 -25 -35 -25 -76 0 -36 -4 -50 -14 -50 -7 0 -16
-9 -19 -20 -4 -15 0 -20 14 -20 18 0 19 -9 19 -120 l0 -120 25 0 25 0 0 120 0
120 30 0 c23 0 30 4 30 20 0 16 -7 20 -30 20 -27 0 -30 3 -30 34 0 50 9 66 37
66 20 0 24 4 21 23 -5 33 -51 35 -83 3z"/>
<path d="M20 4530 l0 -200 74 0 c126 0 166 28 166 117 0 37 -6 53 -25 73 -25
26 -25 27 -9 65 13 32 14 46 5 77 -16 51 -51 68 -141 68 l-70 0 0 -200z m144
134 c20 -20 21 -68 1 -84 -9 -7 -32 -13 -53 -14 l-37 -1 -3 58 -3 57 40 0 c23
0 46 -7 55 -16z m32 -179 c19 -30 11 -81 -16 -95 -10 -6 -39 -10 -64 -10 l-46
0 0 65 0 65 55 0 c47 0 57 -3 71 -25z"/>
<path d="M4240 4700 c0 -25 4 -30 25 -30 21 0 25 5 25 30 0 25 -4 30 -25 30
-21 0 -25 -5 -25 -30z"/>
<path d="M9090 4700 c0 -25 4 -30 25 -30 21 0 25 5 25 30 0 25 -4 30 -25 30
-21 0 -25 -5 -25 -30z"/>
<path d="M987 4673 c-4 -3 -7 -19 -7 -35 0 -18 -5 -28 -15 -28 -8 0 -15 -9
-15 -20 0 -11 6 -20 14 -20 11 0 15 -24 18 -104 4 -120 12 -136 69 -136 32 0
39 4 39 19 0 13 -8 21 -22 23 -22 3 -23 8 -26 101 l-3 97 31 0 c23 0 30 4 30
20 0 16 -7 20 -30 20 -28 0 -30 3 -30 35 0 30 -3 35 -23 35 -13 0 -27 -3 -30
-7z"/>
<path d="M1360 4645 c0 -28 -4 -35 -20 -35 -13 0 -20 -7 -20 -20 0 -13 7 -20
20 -20 19 0 20 -7 20 -101 0 -55 5 -109 10 -120 14 -24 85 -27 94 -4 3 9 0 17
-7 19 -49 15 -47 11 -47 111 l0 95 30 0 c23 0 30 4 30 20 0 16 -7 20 -30 20
-28 0 -30 3 -30 35 0 31 -3 35 -25 35 -22 0 -25 -4 -25 -35z"/>
<path d="M4570 4645 c0 -24 -5 -35 -15 -35 -8 0 -15 -9 -15 -20 0 -11 7 -20
15 -20 12 0 15 -17 15 -92 0 -119 11 -142 68 -146 36 -3 42 0 42 17 0 13 -8
21 -22 23 -22 3 -23 8 -26 101 l-3 97 31 0 c23 0 30 4 30 20 0 16 -7 20 -30
20 -28 0 -30 3 -30 35 0 32 -2 35 -30 35 -28 0 -30 -3 -30 -35z"/>
<path d="M6900 4645 c0 -24 -5 -35 -15 -35 -8 0 -15 -9 -15 -20 0 -11 7 -20
15 -20 12 0 15 -18 15 -98 0 -119 11 -142 71 -142 32 0 39 3 39 20 0 13 -7 20
-20 20 -30 0 -40 31 -40 119 l0 81 30 0 c23 0 30 4 30 20 0 16 -7 20 -30 20
-28 0 -30 3 -30 35 0 31 -3 35 -25 35 -22 0 -25 -4 -25 -35z"/>
<path d="M7270 4645 c0 -24 -5 -35 -15 -35 -8 0 -15 -9 -15 -20 0 -11 7 -20
15 -20 12 0 15 -17 15 -92 0 -119 11 -142 68 -146 37 -3 42 -1 42 17 0 14 -6
21 -20 21 -28 0 -40 37 -40 126 l0 74 30 0 c23 0 30 4 30 20 0 16 -7 20 -30
20 -28 0 -30 3 -30 35 0 31 -3 35 -25 35 -22 0 -25 -4 -25 -35z"/>
<path d="M570 4603 c-78 -40 -92 -173 -25 -240 32 -32 37 -34 97 -31 60 3 63
4 66 29 3 26 2 26 -35 16 -53 -14 -94 6 -109 53 l-12 35 84 3 84 3 0 39 c0 79
-80 129 -150 93z m84 -49 c31 -31 20 -44 -39 -44 -59 0 -67 8 -35 40 24 24 53
26 74 4z"/>
<path d="M1764 4604 c-81 -40 -94 -175 -23 -246 26 -27 33 -29 91 -26 60 3 63
4 66 31 3 26 2 27 -25 16 -59 -22 -123 13 -123 68 0 21 5 22 83 25 l82 3 -2
37 c-3 49 -27 84 -65 97 -40 14 -47 14 -84 -5z m77 -44 c10 -6 19 -20 19 -30
0 -18 -7 -20 -55 -20 -59 0 -67 8 -35 40 22 22 42 25 71 10z"/>
<path d="M2248 4604 c-16 -8 -28 -20 -29 -27 0 -7 -4 -2 -9 11 -6 12 -18 22
-30 22 -19 0 -20 -6 -20 -140 l0 -140 25 0 c25 0 25 0 25 99 0 92 2 101 22
115 12 9 30 16 40 16 13 0 18 8 18 30 0 34 -4 35 -42 14z"/>
<path d="M3353 4605 c-23 -10 -33 -21 -33 -36 0 -16 4 -19 18 -14 54 23 92 12
92 -26 0 -13 -12 -21 -41 -29 -58 -16 -77 -30 -89 -66 -19 -55 13 -104 68
-104 20 0 44 8 55 17 18 17 19 17 28 0 12 -21 55 -22 63 -1 9 22 8 24 -9 24
-12 0 -15 16 -15 80 0 95 -18 146 -55 160 -34 13 -43 12 -82 -5z m77 -174 c0
-44 -18 -64 -52 -59 -19 2 -23 9 -23 38 0 27 6 37 25 47 41 21 50 16 50 -26z"/>
<path d="M4963 4606 c-20 -9 -35 -25 -39 -40 -11 -47 4 -75 61 -112 56 -35 65
-50 43 -72 -16 -16 -43 -15 -78 3 -30 15 -30 15 -30 -14 0 -34 13 -41 79 -41
56 0 91 29 91 74 0 42 -17 64 -70 91 -78 40 -62 86 25 69 31 -5 35 -4 35 14 0
25 -5 28 -50 36 -21 4 -48 0 -67 -8z"/>
<path d="M6490 4603 c-85 -43 -94 -189 -15 -251 20 -16 42 -22 76 -22 63 0 79
7 79 35 0 22 -2 23 -32 14 -18 -5 -41 -9 -50 -9 -25 0 -66 41 -74 73 l-6 27
86 0 86 0 0 40 c0 78 -80 128 -150 93z m82 -50 c33 -30 23 -43 -37 -43 -59 0
-68 10 -38 42 20 22 51 23 75 1z"/>
<path d="M7682 4605 c-59 -26 -88 -126 -58 -199 23 -56 60 -77 130 -74 57 3
61 5 64 29 3 26 2 26 -35 16 -53 -14 -94 6 -109 53 l-12 35 84 3 84 3 0 39 c0
76 -78 126 -148 95z m82 -51 c31 -31 20 -44 -39 -44 -61 0 -73 16 -33 44 29
20 52 20 72 0z"/>
<path d="M8174 4610 c-12 -5 -25 -13 -29 -19 -9 -16 -25 -13 -25 4 0 8 -9 15
-20 15 -19 0 -20 -7 -20 -140 l0 -140 25 0 c25 0 25 0 25 99 0 92 2 101 22
115 12 9 30 16 40 16 13 0 18 8 18 30 0 32 -3 34 -36 20z"/>
<path d="M9844 4613 c-12 -2 -34 -17 -50 -34 -23 -24 -29 -40 -32 -93 -7 -105
36 -156 132 -156 56 0 76 8 76 29 0 27 -8 30 -45 18 -43 -13 -88 4 -104 39
-23 50 -18 54 74 54 84 0 85 0 85 25 0 48 -27 95 -64 110 -20 8 -39 14 -43 14
-4 -1 -18 -4 -29 -6z m63 -55 c31 -40 25 -48 -38 -48 -59 0 -60 0 -48 23 7 12
17 25 23 29 17 12 53 9 63 -4z"/>
<path d="M4240 4470 l0 -140 25 0 25 0 0 140 0 140 -25 0 -25 0 0 -140z"/>
<path d="M9090 4470 l0 -140 25 0 25 0 0 140 0 140 -25 0 -25 0 0 -140z"/>
<path d="M5330 4360 c0 -16 4 -30 10 -30 6 0 6 -9 0 -26 -13 -33 -13 -34 5
-34 17 0 45 60 45 96 0 20 -5 24 -30 24 -27 0 -30 -3 -30 -30z"/>
</g>
</svg>
